<svg viewBox="0 0 1024 1024" xmlns="http://www.w3.org/2000/svg" width="200" height="200"><path d="M407.807 366.397l-.166-269.457c-.011-19.011-15.344-34.43-34.225-34.42-18.881.013-34.195 15.452-34.184 34.462l.12 194.447-217.606-218.9c-12.8-12.873-33.529-12.86-46.38.029-12.786 12.956-12.773 33.827.028 46.7L293.07 338.09l-193.119.12c-18.88.013-34.194 15.452-34.183 34.462.011 19.01 15.345 34.43 34.225 34.419l267.615-.167c24.97-.017 40.217-12.976 40.2-40.528zm247.763 40.821l267.616-.433c18.88-.031 34.18-15.485 34.15-34.496-.031-19.011-15.38-34.415-34.26-34.385l-193.118.312 217.19-219.32c12.774-12.9 12.74-33.772-.074-46.7-12.88-12.86-33.608-12.827-46.38.075l-217.122 219.39-.31-194.448c-.031-19.01-15.38-34.415-34.26-34.384-18.88.03-34.18 15.485-34.15 34.496l.43 269.457c.045 27.55 15.252 40.475 40.289 40.436zM367.765 613.849l-267.615-.416c-18.88-.03-34.228 15.376-34.257 34.387-.029 19.011 15.27 34.464 34.152 34.493l193.118.3-217.874 218.63c-12.813 12.86-12.845 33.731-.072 46.7 12.84 12.9 33.569 12.933 46.38.071l217.807-218.699-.298 194.448c-.028 19.011 15.271 34.464 34.152 34.493 18.881.03 34.228-15.377 34.257-34.388l.413-269.457c.042-27.551-15.193-40.523-40.163-40.562zm247.077 40.601l.473 269.457c.034 19.011 15.384 34.413 34.264 34.38 18.881-.034 34.178-15.49 34.144-34.501l-.34-194.448 217.855 218.65c12.815 12.86 33.543 12.823 46.38-.082 12.771-12.972 12.734-33.843-.081-46.7L729.613 682.624l193.119-.344c18.88-.034 34.177-15.49 34.143-34.5-.034-19.012-15.384-34.413-34.264-34.38l-267.615.476c-25.04.046-40.203 13.023-40.154 40.574z"/></svg>