<svg class="icon" viewBox="0 0 1024 1024" xmlns="http://www.w3.org/2000/svg" width="128" height="128"><path d="M85.333 682.667v128a128 128 0 0 0 128 128h128a42.667 42.667 0 0 0 0-85.334h-128a42.667 42.667 0 0 1-42.666-42.666v-128a42.667 42.667 0 0 0-85.334 0zm597.334 256h128a128 128 0 0 0 128-128v-128a42.667 42.667 0 0 0-85.334 0v128a42.667 42.667 0 0 1-42.666 42.666h-128a42.667 42.667 0 0 0 0 85.334zm256-597.334v-128a128 128 0 0 0-128-128h-128a42.667 42.667 0 0 0 0 85.334h128a42.667 42.667 0 0 1 42.666 42.666v128a42.667 42.667 0 0 0 85.334 0zm-597.334-256h-128a128 128 0 0 0-128 128v128a42.667 42.667 0 0 0 85.334 0v-128a42.667 42.667 0 0 1 42.666-42.666h128a42.667 42.667 0 0 0 0-85.334z"/></svg>