<svg class="icon" viewBox="0 0 1024 1024" xmlns="http://www.w3.org/2000/svg" width="128" height="128"><path d="M512 48c131.627 0 240.597 101.824 250.027 232.427a37.333 37.333 0 1 1-74.496 5.376 176 176 0 0 0-351.467 7.488l-.064 5.376-.021 90.666h410.688a186.667 186.667 0 0 1 186.581 181.163l.085 5.504v213.333A186.667 186.667 0 0 1 746.667 976H277.333A186.667 186.667 0 0 1 90.667 789.333V576a186.667 186.667 0 0 1 170.666-185.984v-91.35C261.333 160.214 373.547 48 512 48zm234.667 416H277.333a112 112 0 0 0-112 112v213.333c0 61.867 50.134 112 112 112h469.334c61.866 0 112-50.133 112-112V576c0-61.867-50.134-112-112-112z"/><path d="M522.667 581.333a37.333 37.333 0 0 1 37.205 34.262l.128 3.072v128a37.333 37.333 0 0 1-74.539 3.072l-.128-3.072v-128c0-20.608 16.726-37.334 37.334-37.334z"/></svg>