<svg class="icon" viewBox="0 0 1118 1024" xmlns="http://www.w3.org/2000/svg" width="139.75" height="128"><path d="M83.859 413.836c3.002 0 6.027-.396 9.076-1.187l172.614-46.243c18.595-5.004 29.65-24.134 24.669-42.775-5.004-18.619-24.064-29.557-42.775-24.693l-91.206 24.46c71.238-153.39 225.094-253.58 397.405-253.58 211.153 0 392.448 150.435 431.057 357.702 3.142 16.803 17.804 28.51 34.281 28.51 2.118 0 4.26-.164 6.423-.583 18.944-3.514 31.465-21.736 27.928-40.704C1008.554 174.43 798.4 0 553.642 0 356.057 0 179.44 113.64 95.705 288.21L68.662 187.205c-5.004-18.618-24.11-29.557-42.776-24.693-18.618 5.004-29.672 24.134-24.692 42.776l48.966 182.69c4.166 15.593 18.292 25.857 33.699 25.857zM1109.86 790.36l-48.966-182.667c-4.98-18.595-24.087-29.557-42.752-24.67L845.53 629.268c-18.619 5.003-29.673 24.133-24.693 42.775 5.004 18.618 24.087 29.58 42.775 24.692l97.42-26.135c-65.699 164.515-227.91 276.41-407.389 276.41-211.898 0-393.286-151.04-431.337-359.145-3.467-18.99-21.736-31.557-40.61-28.066-18.968 3.467-31.512 21.643-28.068 40.61 44.126 241.292 254.395 416.42 500.015 416.42 200.96 0 383.046-121.205 463.849-301.336l24.925 92.951c4.166 15.593 18.292 25.88 33.699 25.88a35.7 35.7 0 0 0 9.053-1.187c18.618-5.004 29.673-24.134 24.692-42.776z"/></svg>